# xmcd
#
# Track frame offsets:
#	150
#	10508
#	27882
#	45003
#	63811
#	87989
#	108310
#	121151
#	135976
#	159551
#	180458
#	199291
#	228742
#	244178
#	269347
#
# Disc length: 3745 seconds
#
# Revision: 1
# Processed by: cddbd v1.5.2PL0 Copyright (c) Steve Scherf et al.
# Submitted via: audiograbber 1.83.01
#
DISCID=b50e9f0f
DTITLE=Women'n Blues - NYS Rhythm and Blues Festival
DYEAR=1999
DGENRE=Rhythm and Blues
TTITLE0=Betty Lee - Mr GoodbarTrack  1
TTITLE1=Shirley Woodcock - Am I Blue?
TTITLE2=Emily Schuster - Has anybody seen my baby
TTITLE3=Kim Lembo - Mama Lion
TTITLE4=Jacque Tara Washington - Living here on earth
TTITLE5=Ava Andrews - Movin' On
TTITLE6=Beckey Keefe - Freight Train
TTITLE7=Jane Zell - Lover's Rag
TTITLE8=Nancy Kelley - Since I fell for you
TTITLE9=Marcia Hagan - I got to let you go
TTITLE10=Donna Colton - Silver tongue devil saloon
TTITLE11=Catrolyn Owen - Get over it
TTITLE12=Miss E. - Temptation
TTITLE13=Mary Haitz - It's up to you
TTITLE14=Emily Schuster - It's my soul
EXTD=
EXTT0=
EXTT1=
EXTT2=
EXTT3=
EXTT4=
EXTT5=
EXTT6=
EXTT7=
EXTT8=
EXTT9=
EXTT10=
EXTT11=
EXTT12=
EXTT13=
EXTT14=
PLAYORDER=
